<svg xmlns="http://www.w3.org/2000/svg" width="1540.54" height="453.97" viewBox="0 0 1540.54 453.97"><defs><style>.cls-1{fill:#091f62;}.cls-2{fill:#a87b00;}.cls-3{fill:#d4b76a;}.cls-4{fill:#fff;}.cls-5{fill:#0a6826;}</style></defs><g id="Layer_2" data-name="Layer 2"><g id="Layer_1-2" data-name="Layer 1"><path class="cls-1" d="M560.85,188.16V148.5h34.57V134.27H560.85V107.39h40.53V93.15H544v95Zm86.29,1.74a39.19,39.19,0,0,0,13.07-2.18,51.16,51.16,0,0,0,11.33-5.52h0l-5.67-10.45a38.6,38.6,0,0,1-7.91,3.84,26.37,26.37,0,0,1-8.65,1.38q-8.71,0-14.3-5.15t-6.76-14.75h45.32a28.35,28.35,0,0,0,.51-3.48,45.62,45.62,0,0,0,.22-4.65,47,47,0,0,0-1.89-13.66,30.7,30.7,0,0,0-5.59-10.75,25,25,0,0,0-9.23-7,31,31,0,0,0-12.78-2.47,30,30,0,0,0-12.2,2.62,32.51,32.51,0,0,0-10.53,7.4,36.05,36.05,0,0,0-7.34,11.77A42.34,42.34,0,0,0,612,152.57a43.21,43.21,0,0,0,2.69,15.76,33.45,33.45,0,0,0,7.48,11.7,32.7,32.7,0,0,0,11.18,7.33A37,37,0,0,0,647.14,189.9Zm12.63-44.16H628.1q1.17-8.72,6-13.22a15.85,15.85,0,0,1,11.19-4.5q7.41,0,11,4.72t3.56,13Zm55.5,44.16a23.35,23.35,0,0,0,11-2.76,37.83,37.83,0,0,0,9.15-6.68H736l1.16,7.7H751V85.6H734.3v25.86l.58,11.47a41.14,41.14,0,0,0-8.43-5.73,22.8,22.8,0,0,0-10.31-2.11,25.62,25.62,0,0,0-11.26,2.62,30.22,30.22,0,0,0-9.66,7.4,36.71,36.71,0,0,0-6.76,11.77,45.7,45.7,0,0,0-2.54,15.69q0,17.72,7.92,27.53T715.27,189.9Zm4.06-13.8q-7.85,0-12-6t-4.14-17.65q0-11.32,4.79-17.43t11.77-6.1A20.75,20.75,0,0,1,727,130.2a23.63,23.63,0,0,1,7.34,4.65h0v33.26Q727.33,176.11,719.33,176.1Zm83.39,13.8a39.19,39.19,0,0,0,13.07-2.18,50.94,50.94,0,0,0,11.33-5.52h0l-5.66-10.45a38.92,38.92,0,0,1-7.92,3.84A26.26,26.26,0,0,1,804.9,177q-8.71,0-14.31-5.15t-6.76-14.75h45.33a32.88,32.88,0,0,0,.51-3.48q.21-2.19.21-4.65A47.38,47.38,0,0,0,828,135.28a30.71,30.71,0,0,0-5.6-10.75,25,25,0,0,0-9.22-7,31,31,0,0,0-12.79-2.47,30,30,0,0,0-12.2,2.62,32.51,32.51,0,0,0-10.53,7.4,36.05,36.05,0,0,0-7.34,11.77,42.34,42.34,0,0,0-2.76,15.69,43.21,43.21,0,0,0,2.69,15.76,33.59,33.59,0,0,0,7.48,11.7,32.84,32.84,0,0,0,11.19,7.33A36.89,36.89,0,0,0,802.72,189.9Zm12.64-44.16H783.69q1.15-8.72,5.95-13.22a15.85,15.85,0,0,1,11.19-4.5q7.41,0,11,4.72t3.56,13Zm47.21,42.42V144.58q3.34-8.13,8-11.4t8.86-3.27a21.73,21.73,0,0,1,3.92.29,29.08,29.08,0,0,1,3.49.87h0l2.9-14.53a19.06,19.06,0,0,0-8.13-1.45,19.28,19.28,0,0,0-11,3.7,30,30,0,0,0-9.15,10.68h-.58l-1.17-12.64h-13.8v71.33Zm54.77,1.74a25.85,25.85,0,0,0,11.84-2.76,52.6,52.6,0,0,0,10.24-6.82H940l1.16,7.84H955V145.89q0-15-6.61-22.88t-20-7.92a45.39,45.39,0,0,0-16,2.76A71.34,71.34,0,0,0,899,124.39h0l6.1,11.18a70.4,70.4,0,0,1,9.81-4.94,27.09,27.09,0,0,1,10.24-2,15,15,0,0,1,6.1,1.09,10.16,10.16,0,0,1,4,3.05,12.41,12.41,0,0,1,2.18,4.5,27,27,0,0,1,.79,5.31,117.93,117.93,0,0,0-19,3.34,50.14,50.14,0,0,0-13.08,5.37,19.55,19.55,0,0,0-10,17.73q0,9.44,5.81,15.18T917.34,189.9Zm5.37-13.07a12,12,0,0,1-7.41-2.18c-1.93-1.45-2.9-3.78-2.9-7a9.92,9.92,0,0,1,1.3-4.94,11.74,11.74,0,0,1,4.36-4.14,35.54,35.54,0,0,1,8-3.27,76,76,0,0,1,12.2-2.32h0v16a43.1,43.1,0,0,1-7.62,5.81A15.72,15.72,0,0,1,922.71,176.83Zm68.57,13.07a22.52,22.52,0,0,0,8.86-1.45h0L998,176a6.37,6.37,0,0,1-1.53.29h-1.08a3.35,3.35,0,0,1-2.47-1.24c-.78-.82-1.17-2.25-1.17-4.28h0V85.6H975v84.26q0,9.28,3.63,14.67T991.28,189.9Zm58.4-1.74,7.4-25.71h32l7.41,25.71h17.73l-31-95h-19.75l-31,95Zm35.59-38.93H1061l3.34-11.62q2.33-7.56,4.36-15.47t4.06-15.91h.58q2,7.84,4.14,15.83t4.44,15.55h0Zm74.52,38.93,24.26-71.33h-16.13l-11.33,37.05q-1.59,5.22-3,10.6t-3,10.9h-.58q-1.46-5.52-3-10.9c-1-3.58-2-7.12-3-10.6h0l-11.34-37h-17l24.84,71.33Zm45-83.82a10.64,10.64,0,0,0,7.41-2.61,8.76,8.76,0,0,0,2.91-6.83,9,9,0,0,0-2.91-6.9,11.55,11.55,0,0,0-14.82,0,9,9,0,0,0-2.9,6.9,8.78,8.78,0,0,0,2.9,6.83A10.68,10.68,0,0,0,1204.82,104.34Zm8.28,83.82V116.83h-16.7v71.33Zm38.65,1.74a25.78,25.78,0,0,0,11.83-2.76,52.37,52.37,0,0,0,10.25-6.82h.58l1.16,7.84h13.8V145.89q0-15-6.61-22.88t-20-7.92a45.39,45.39,0,0,0-16,2.76,71.34,71.34,0,0,0-13.37,6.54h0l6.1,11.18a70.4,70.4,0,0,1,9.81-4.94,27.09,27.09,0,0,1,10.24-2,15.06,15.06,0,0,1,6.1,1.09,10.16,10.16,0,0,1,4,3.05,12.23,12.23,0,0,1,2.17,4.5,26.26,26.26,0,0,1,.8,5.31,117.93,117.93,0,0,0-19,3.34,50.14,50.14,0,0,0-13.08,5.37,19.55,19.55,0,0,0-10,17.73q0,9.44,5.81,15.18T1251.75,189.9Zm5.37-13.07a12,12,0,0,1-7.41-2.18c-1.94-1.45-2.9-3.78-2.9-7a9.92,9.92,0,0,1,1.3-4.94,11.74,11.74,0,0,1,4.36-4.14,35.54,35.54,0,0,1,8-3.27,76,76,0,0,1,12.2-2.32h0v16a43.1,43.1,0,0,1-7.62,5.81A15.75,15.75,0,0,1,1257.12,176.83Zm77.43,13.07a37,37,0,0,0,7.92-.8,54.91,54.91,0,0,0,6.61-1.81h0l-2.91-12.35a19,19,0,0,1-7.41,1.6q-10,0-10-12.49h0v-34h18.16V116.83h-18.16V97.37h-14l-2,19.46-11,.73v12.49h10.17v34a41.81,41.81,0,0,0,1.23,10.53,21.84,21.84,0,0,0,3.92,8.13,17.9,17.9,0,0,0,7,5.31A26.2,26.2,0,0,0,1334.55,189.9Zm35.73-85.56a10.64,10.64,0,0,0,7.41-2.61,8.76,8.76,0,0,0,2.91-6.83,9,9,0,0,0-2.91-6.9,11.54,11.54,0,0,0-14.81,0,9,9,0,0,0-2.91,6.9,8.76,8.76,0,0,0,2.91,6.83A10.64,10.64,0,0,0,1370.28,104.34Zm8.29,83.82V116.83h-16.71v71.33Zm50.55,1.74a34.29,34.29,0,0,0,12.86-2.47,30.8,30.8,0,0,0,10.82-7.26,36.34,36.34,0,0,0,7.48-11.77,45.69,45.69,0,0,0,0-31.66A36.23,36.23,0,0,0,1452.8,125a31.85,31.85,0,0,0-10.82-7.34,33.59,33.59,0,0,0-12.86-2.54,32.91,32.91,0,0,0-23.61,9.88,34.8,34.8,0,0,0-7.48,11.77,46.78,46.78,0,0,0,0,31.66,34.9,34.9,0,0,0,7.48,11.77,31.68,31.68,0,0,0,10.83,7.26A33.62,33.62,0,0,0,1429.12,189.9Zm0-13.65a14.1,14.1,0,0,1-12.28-6.47q-4.42-6.47-4.43-17.21t4.43-17.36a14.09,14.09,0,0,1,12.28-6.46,14.27,14.27,0,0,1,12.35,6.46q4.5,6.47,4.5,17.36t-4.5,17.21A14.27,14.27,0,0,1,1429.12,176.25Zm67.26,11.91V138.33a52.64,52.64,0,0,1,8.06-6.61,15,15,0,0,1,8.21-2.25q6,0,8.57,3.63t2.61,12.5h0v42.56h16.71V143.42q0-13.66-5.23-21t-16.71-7.34a24.86,24.86,0,0,0-13,3.34,56.33,56.33,0,0,0-10.38,8h-.58l-1.17-9.59h-13.8v71.33ZM548.79,345.54l7.41-25.72h32l7.4,25.72h17.73l-30.94-95H562.59l-30.94,95Zm35.59-38.94H560.12L563.46,295q2.32-7.55,4.36-15.47t4.07-15.91h.58q2,7.84,4.14,15.84T581,295h0Zm64.21,40.68a23.35,23.35,0,0,0,11-2.76,37.9,37.9,0,0,0,9.15-6.68h.58l1.16,7.7h13.8V243h-16.7v25.85l.58,11.48a41.61,41.61,0,0,0-8.43-5.74,22.9,22.9,0,0,0-10.31-2.1,25.78,25.78,0,0,0-11.26,2.61,30.11,30.11,0,0,0-9.66,7.41,36.41,36.41,0,0,0-6.75,11.77,45.36,45.36,0,0,0-2.55,15.68q0,17.73,7.92,27.53T648.59,347.28Zm4.07-13.8q-7.85,0-12-6t-4.14-17.65q0-11.32,4.79-17.43t11.77-6.1a20.73,20.73,0,0,1,7.19,1.3,23.63,23.63,0,0,1,7.34,4.65h0v33.27Q660.65,333.47,652.66,333.48Zm69.58,12.06V295.71q8.28-8.86,15-8.86,5.67,0,8.35,3.63T748.24,303h0v42.57H765V295.71q8.28-8.86,15-8.86,5.52,0,8.21,3.63T790.81,303h0v42.57h16.85V300.79q0-13.65-5.38-21t-16.7-7.33a22,22,0,0,0-12.35,3.63,57.37,57.37,0,0,0-10.61,9.15,20.62,20.62,0,0,0-7.19-9.44q-4.71-3.35-12.56-3.34a22,22,0,0,0-12,3.34,50,50,0,0,0-9.8,8.13h-.58l-1.17-9.73h-13.8v71.33Zm114.18-83.82a10.69,10.69,0,0,0,7.41-2.62,8.74,8.74,0,0,0,2.9-6.83,9,9,0,0,0-2.9-6.9,11.55,11.55,0,0,0-14.82,0,9,9,0,0,0-2.9,6.9,8.77,8.77,0,0,0,2.9,6.83A10.69,10.69,0,0,0,836.42,261.72Zm8.28,83.82V274.21H828v71.33Zm38.06,0V295.71a52,52,0,0,1,8.06-6.61,15.05,15.05,0,0,1,8.21-2.25q6,0,8.57,3.63T910.22,303h0v42.57h16.7V300.79q0-13.65-5.23-21T905,272.47a24.81,24.81,0,0,0-13,3.34,56.29,56.29,0,0,0-10.39,8H881l-1.16-9.59h-13.8v71.33Zm73.07-83.82a10.69,10.69,0,0,0,7.41-2.62,8.74,8.74,0,0,0,2.91-6.83,9,9,0,0,0-2.91-6.9,11.55,11.55,0,0,0-14.82,0,9,9,0,0,0-2.9,6.9,8.77,8.77,0,0,0,2.9,6.83A10.69,10.69,0,0,0,955.83,261.72Zm8.28,83.82V274.21h-16.7v71.33Zm41.26,1.74a37.69,37.69,0,0,0,11.91-1.74,25.93,25.93,0,0,0,8.72-4.73,20,20,0,0,0,5.3-7,20.62,20.62,0,0,0,1.82-8.64,18.51,18.51,0,0,0-1.82-8.5,19,19,0,0,0-4.79-6,29.69,29.69,0,0,0-6.61-4.14c-2.43-1.11-4.85-2.11-7.27-3-1.93-.68-3.8-1.35-5.59-2a33.81,33.81,0,0,1-4.72-2.18,11.22,11.22,0,0,1-3.27-2.69,5.7,5.7,0,0,1-1.24-3.7,7.15,7.15,0,0,1,2.55-5.59q2.53-2.26,7.91-2.26a20.15,20.15,0,0,1,8.07,1.67,40.08,40.08,0,0,1,7.62,4.43h0l7.7-10.16a49.35,49.35,0,0,0-10.31-6,33,33,0,0,0-13.37-2.61q-12,0-19,5.95a19.3,19.3,0,0,0-7,15.4,15.77,15.77,0,0,0,1.82,7.77,21.42,21.42,0,0,0,4.64,5.74,28.51,28.51,0,0,0,6.47,4.21q3.63,1.74,7.12,3,2.76,1.17,5.52,2.25a34.44,34.44,0,0,1,4.94,2.4,12.58,12.58,0,0,1,3.48,3,6,6,0,0,1,1.31,3.85,7.78,7.78,0,0,1-2.76,6.17q-2.76,2.4-8.57,2.4a24.76,24.76,0,0,1-10.24-2.11,45.13,45.13,0,0,1-9.52-5.88h0l-7.84,10.75a47.36,47.36,0,0,0,12.42,7.05A39.68,39.68,0,0,0,1005.37,347.28Zm67.84,0a37.7,37.7,0,0,0,7.92-.8,54.82,54.82,0,0,0,6.61-1.82h0l-2.91-12.34a18.13,18.13,0,0,1-3.56,1.16,17.75,17.75,0,0,1-3.85.43q-10,0-10-12.49h0v-34h18.16V274.21H1067.4V254.74h-14l-2,19.47-11,.72v12.5h10.17v34a41.75,41.75,0,0,0,1.23,10.53,22.11,22.11,0,0,0,3.92,8.14,18,18,0,0,0,7,5.3A26.06,26.06,0,0,0,1073.21,347.28Zm44-1.74V302q3.33-8.13,8-11.4a15.53,15.53,0,0,1,8.86-3.27,22.76,22.76,0,0,1,3.92.29,34.09,34.09,0,0,1,3.49.87h0l2.9-14.52a20.13,20.13,0,0,0-19.17,2.25,29.92,29.92,0,0,0-9.16,10.68h-.58l-1.16-12.64h-13.8v71.33Zm54.76,1.74a25.82,25.82,0,0,0,11.84-2.76,52.35,52.35,0,0,0,10.24-6.83h.58l1.17,7.85h13.8V303.26q0-15-6.61-22.88t-20-7.91a45.43,45.43,0,0,0-16,2.76,71.22,71.22,0,0,0-13.36,6.53h0l6.1,11.19a67.76,67.76,0,0,1,9.81-4.94,26.9,26.9,0,0,1,10.24-2,15.24,15.24,0,0,1,6.1,1.08,10.14,10.14,0,0,1,4,3.06,11.94,11.94,0,0,1,2.18,4.5,26.77,26.77,0,0,1,.8,5.3,120.55,120.55,0,0,0-19,3.34,50.2,50.2,0,0,0-13.07,5.38,20.58,20.58,0,0,0-7.55,7.62,20.88,20.88,0,0,0-2.4,10.1q0,9.43,5.81,15.18T1172,347.28Zm5.38-13.08A12,12,0,0,1,1170,332c-1.94-1.46-2.91-3.78-2.91-7a10,10,0,0,1,1.31-4.94,11.66,11.66,0,0,1,4.36-4.14,35.35,35.35,0,0,1,8-3.27,77.08,77.08,0,0,1,12.2-2.32h0v16a42.3,42.3,0,0,1-7.63,5.81A15.61,15.61,0,0,1,1177.37,334.2Zm77.43,13.08a37.67,37.67,0,0,0,7.91-.8,54.31,54.31,0,0,0,6.61-1.82h0l-2.9-12.34a18.35,18.35,0,0,1-3.56,1.16,17.75,17.75,0,0,1-3.85.43q-10,0-10-12.49h0v-34h18.15V274.21H1249V254.74h-14l-2,19.47-11,.72v12.5h10.16v34a41.74,41.74,0,0,0,1.24,10.53,22,22,0,0,0,3.92,8.14,17.94,17.94,0,0,0,7,5.3A26.11,26.11,0,0,0,1254.8,347.28Zm35.73-85.56a10.69,10.69,0,0,0,7.41-2.62,8.74,8.74,0,0,0,2.91-6.83,9,9,0,0,0-2.91-6.9,11.55,11.55,0,0,0-14.82,0,9,9,0,0,0-2.9,6.9,8.77,8.77,0,0,0,2.9,6.83A10.69,10.69,0,0,0,1290.53,261.72Zm8.28,83.82V274.21h-16.7v71.33Zm50.56,1.74a34.2,34.2,0,0,0,12.85-2.47,30.89,30.89,0,0,0,10.82-7.26,36.36,36.36,0,0,0,7.49-11.77,45.72,45.72,0,0,0,0-31.67,36.36,36.36,0,0,0-7.49-11.77,31.63,31.63,0,0,0-10.82-7.33,33.31,33.31,0,0,0-12.85-2.54,32.9,32.9,0,0,0-23.61,9.87,34.75,34.75,0,0,0-7.48,11.77,46.81,46.81,0,0,0,0,31.67,34.75,34.75,0,0,0,7.48,11.77,31.93,31.93,0,0,0,10.82,7.26A33.71,33.71,0,0,0,1349.37,347.28Zm0-13.66a14.08,14.08,0,0,1-12.28-6.46q-4.42-6.46-4.43-17.22t4.43-17.36a14.1,14.1,0,0,1,12.28-6.46,14.26,14.26,0,0,1,12.34,6.46q4.51,6.46,4.51,17.36t-4.51,17.22A14.24,14.24,0,0,1,1349.37,333.62Zm67.26,11.92V295.71a52,52,0,0,1,8.06-6.61,15,15,0,0,1,8.21-2.25q6,0,8.57,3.63t2.61,12.49h0v42.57h16.71V300.79q0-13.65-5.23-21t-16.71-7.33a24.84,24.84,0,0,0-13,3.34,56.29,56.29,0,0,0-10.39,8h-.58l-1.16-9.59h-13.8v71.33Z"/><path class="cls-2" d="M453.93,226.93l-.3,11.61-.87,11.62-1.45,11.29-2,11.19-2.53,11-3.06,10.86L440.15,305l-4.08,10.33-4.55,10-5,9.78L421,344.59l-5.9,9.25-6.34,8.92-6.74,8.61-7.14,8.17-7.52,8-7.88,7.42-8.24,7.21-8.58,6.67-8.91,6.34-9.2,5.92-9.51,5.48-9.79,5.06-10,4.51-10.32,4.09-10.54,3.55-10.76,3-11,2.58-11.18,1.94-11.36,1.5-11.51.86L226.9,454C101.54,454,0,352.33,0,226.93S101.54,0,226.9,0,453.93,101.63,453.93,226.93Z"/><path class="cls-3" d="M444.52,226.93l-.29,11.18-.84,11.08L442,260.06l-1.92,10.75-2.43,10.54-2.93,10.32-3.42,10.11-3.9,9.9-4.35,9.57-4.8,9.36L413,339.75l-5.66,8.82-6.06,8.6-6.46,8.18L388,373.3l-7.21,7.53L373.25,388l-7.88,6.77-8.23,6.56-8.53,6-8.82,5.7-9.11,5.16-9.38,4.84-9.63,4.41-9.89,3.87-10.11,3.44-10.32,2.91-10.52,2.36L260.12,442l-10.9,1.4-11,.86-11.2.32c-120.19,0-217.57-97.55-217.57-217.68S106.79,9.36,227,9.36,444.52,106.8,444.52,226.93Z"/><path class="cls-1" d="M435.73,226.82l-.27,10.76-.8,10.64-1.32,10.44L431.5,269l-2.34,10.11-2.8,9.89-3.28,9.68-3.75,9.47-4.17,9.25-4.61,9-5,8.71-5.43,8.5-5.82,8.17-6.19,7.85-6.56,7.64-6.91,7.21-7.25,6.88L359.79,388l-7.89,6.13-8.18,5.8-8.47,5.49-8.73,5.05-9,4.52-9.24,4.2L298.79,423l-9.7,3.33-9.91,2.8-10.09,2.26-10.28,1.83-10.45,1.4-10.59.75-10.75.32c-115.28,0-208.75-93.46-208.75-208.86S111.74,18.07,227,18.07,435.73,111.53,435.73,226.82Z"/><path class="cls-4" d="M226.94,85.61l-7.27.22-7.17.53-7.08.86-7,1.19L191.62,90,184.92,92l-6.57,2.25-6.41,2.48-6.26,2.79-6.1,3.12L153.67,106l-5.73,3.66-5.54,4-5.34,4.19-5.13,4.41L127,127l-4.68,4.84L117.91,137l-4.19,5.38-3.94,5.48-3.67,5.81-3.4,5.91-3.13,6-2.83,6.23-2.53,6.46L92,184.88l-1.9,6.77-1.59,6.78-1.23,7-.91,7.1-.53,7.2-.2,7.21c0,78.08,63.23,141.43,141.29,141.43a141.38,141.38,0,0,0,0-282.75Z"/><path class="cls-3" d="M331.42,300.82l2.69-4,2.54-4.09,2.4-4.19,2.24-4.31,2.09-4.4,1.94-4.41,1.76-4.52,1.6-4.63,1.42-4.73,1.25-4.73,1.08-4.95.88-4.84.69-4.94.5-5.06.3-5,.11-5.17h26.76l-.55-1.07-26.3-2.37a128.12,128.12,0,0,0-49.41-97.76,71.83,71.83,0,0,0,11.35-12.05,8.65,8.65,0,0,0,1.59-8.06,148.37,148.37,0,0,1-22.55,13.33c-1.73-1.07-3.45-2.25-5.22-3.22v-.11h-.2a127.6,127.6,0,0,0-63.23-17.1l0-26.35-1.1.54-2,25.81C155.43,99.81,99.9,155.09,98.18,223.49l-25.13,2.26-.55,1.08H98.09A128.57,128.57,0,0,0,223.67,355.24l2.22,25.7,1.13.54V355.24C269.71,355.13,308.19,333.08,331.42,300.82Z"/><path class="cls-3" d="M352.3,226.82l-.16,6.45-.49,6.46-.79,6.23-1.1,6.14-1.41,6.13-1.69,5.91-2,5.81-2.25,5.7-2.51,5.59-2.76,5.38-3,5.27-3.26,5.16-3.5,4.84-3.72,4.73-3.95,4.63-4.15,4.3-4.34,4.19-4.55,3.88-4.75,3.76L297,330.93l-5.09,3.23-5.25,3L281.3,340l-5.57,2.48-5.68,2.26-5.83,1.93-6,1.72-6.07,1.4L246,350.83l-6.27.86-6.37.43-6.45.21A125.46,125.46,0,1,1,352.3,226.82Z"/><path class="cls-4" d="M40.91,184.34l30.21,8.06,1.43-5.27s-11.81-3.22-13.19-3.54c.37-1.3,2.68-10.11,2.68-10.11l-4.36-1.19S55.32,181.11,55,182.4c-1.22-.32-7.06-1.83-8.28-2.26.38-1.29,3.19-11.93,3.19-11.93l-4.36-1.08Zm9.54-30.54,28.4,13.12,7.81-17.1-4.12-1.94s-5,10.76-5.49,12.05c-1.19-.54-7.45-3.45-8.62-3.88l4.37-9.57-4.17-1.83s-3.77,8.29-4.32,9.47c-1.13-.43-6.3-2.91-7.43-3.34.58-1.29,5.16-11.29,5.16-11.29l-4.12-1.93ZM72,115.19l-6.76,9.35,25.33,18.29,6.76-9.36A13.85,13.85,0,0,0,100.06,123c-.66-4.09-3.31-8-7.43-11C84.94,106.58,77.42,107.66,72,115.19ZM74.86,119l.26-.32.27-.33.29-.32.3-.43.31-.32.32-.32.34-.22.34-.32.36-.32.38-.22.38-.32.4-.22.41-.21.42-.11.44-.21.44-.11.46-.11.49-.11.48-.1h1l.53.1h.55l.55.11.58.22.58.21.3.11.3.11.3.1.31.11.32.22.31.1.32.22.32.21.33.22.32.21.33.22.35.21c3.26,2.37,5.16,4.95,5.62,7.64a5.72,5.72,0,0,1,.09,1.18,8.57,8.57,0,0,1-1.72,5.06l-3.45,4.84c-1.18-.86-16.81-12.15-18-12.91C72.84,121.75,74.86,119,74.86,119Zm15-25.6,21.55,22.7,13.62-12.91-3.15-3.33L112.33,109c-.88-1-5.63-5.92-6.51-6.88,1-.86,7.52-7.21,7.52-7.21l-3.1-3.23s-6.57,6.24-7.57,7.21c-.85-1-4.79-5.06-5.63-5.92l9-8.6-3.15-3.23Zm32.48-26.67-8.66,5.81,17.26,26,4.58-3.11S129.39,86,128.64,85c.75-.53,1.88-1.29,2.3-1.61l14.12,5.81,5.71-3.87s-15-5.7-16.51-6.24a10.34,10.34,0,0,0,1.52-5.16,9.34,9.34,0,0,0-1.52-5.17,8.1,8.1,0,0,0-5-3.65A9.56,9.56,0,0,0,122.38,66.68Zm1,4.73.26-.11.25-.21.25-.11.25-.11h.12l.13-.1h.12l.13-.11h.12l.13-.11h.36l.12-.11h.6l.12-.1h.34l.12.1h.45a3.58,3.58,0,0,1,2.23,1.62,5.54,5.54,0,0,1,1.09,3.22c0,1.94-1.26,3.66-3.74,5.38,0,0-.43.22-.8.43-.63-1-4.54-6.88-5.25-8C121.66,72.6,123.42,71.41,123.42,71.41Zm29.45-21.08.34,33.56L158,82s-.09-8.06-.09-9c.88-.32,10.18-4.09,11.06-4.52.66.75,6.3,6.56,6.3,6.56l5.5-2.26L157.53,48.4Zm4.88,6.35.18.21.21.22.21.21.23.22.24.21.25.33.26.21.28.32.27.33.29.32.58.54.59.64.6.65.59.64.29.22.28.32.28.32.26.22.26.32.25.22.23.32.22.21.22.22.19.21.17.22.16.11.14.1.12.22c-1.52.54-6.21,2.47-7.73,3.12C157.87,66.36,157.78,59.37,157.75,56.68Zm23.61-15.92,6.21,30.55,18.54-3.77-.93-4.41s-11.68,2.37-13.07,2.69c-.29-1.5-5.33-26.24-5.33-26.24Zm49.36,25.17,5.12.65s3.79-7.21,4.25-8L252,59.91c.26,1,2.36,8.71,2.36,8.71l5.93.75-8.75-32.48-5-.64Zm17-21.72.06.32.08.21.08.33.09.32.1.32.08.32.11.43.1.33.1.43.11.43.22.75.22.86.23.86.22.75.11.43.11.43.11.33.09.43.1.32.1.32.08.32.09.33.08.32.08.32.06.22.07.21,0,.22.05.11c-1.64-.11-6.68-.76-8.32-1C243.2,52.81,246.48,46.68,247.74,44.21ZM271,72.7l4.83,1.51,19.88-26.67-5-1.51S278.2,62.81,276.06,65.71c-.26-3.65-1.73-24.63-1.73-24.63l-5.67-1.72Zm21.64,8.18,5,2.37L311,55l-5-2.37Zm11.8,4.94,4.29,2.91,7.47-5.17L326,90.34c-.2,1-1.93,8.82-1.93,8.82L329,102.6l7.4-32.8-4.16-2.91Zm25.21-11.29-.06.22-.06.32-.07.21-.07.33-.08.43-.07.32-.09.32-.09.43-.08.43-.1.32-.18.87-.18.86-.19.86-.19.75-.09.43-.08.43-.1.43-.07.32-.09.32-.08.43-.07.33-.08.32-.06.22-.07.32-.05.21,0,.22-.05.21,0,.22c-1.34-1-5.55-3.77-6.89-4.73C321.64,79.91,327.39,76,329.62,74.53Zm25.45,16.35L355,91h-.09l-.1.11-.13.21-.15.11-.18.21-.19.11L354,92l-.23.32-.25.21-.26.22L353,93l-.3.32-.31.33-.64.64L351,95l-.73.86-.78.75-.79.75-.83.86-.84.86-1.7,1.73-.84,1-.84.86-.83.76-.79.86-.78.75-.74.75-.69.76-.65.64-.3.32-.29.33-.28.32-.26.21-.25.22-.22.32-.22.22-.19.1-.18.22-.15.21-.13.11-.1.11-.09.11h0l-.05.1h0l3.95,3.88S358,95.83,359,94.75c1,1,7.53,7.32,7.53,7.32l3.19-3.23-19-18.5-3.19,3.23Zm-3.36,35.93,3.4,4.41,24.75-19.15-3.4-4.3Zm22.36,3.11c-8.7,4.73-11.64,12.8-7.45,20.54a13.58,13.58,0,0,0,8.16,6.89c3.94,1.18,8.61.53,13.15-1.94,8.73-4.73,11.68-12.8,7.47-20.54S382.84,125.19,374.07,129.92Zm-3.41,18.39-.16-.32-.17-.32-.13-.33-.12-.32-.11-.32-.1-.32-.08-.33-.08-.21,0-.32-.05-.33,0-.32,0-.21v-.86l0-.33.09-.53.12-.43L370,142l.18-.54.23-.43.24-.43.27-.43.29-.43.33-.43.33-.43.34-.43.36-.32.37-.33.38-.32.38-.32.38-.32.38-.33.38-.21.37-.33.37-.21.34-.22.35-.21.32-.11.3-.21c2.14-1.19,6.3-3,10-1.94a7.9,7.9,0,0,1,4.58,4,8.51,8.51,0,0,1,1.1,4c0,4.73-4.87,8-7.36,9.36C382.05,152.08,374.4,155.2,370.66,148.31ZM376.84,170l1.42,4.84s16.81-4.95,20.76-6c-2.78,3.22-16.89,19.35-16.89,19.35l1.43,4.95,30-8.71-1.39-4.84s-16.81,4.95-20.76,6c2.78-3.12,16.89-19.25,16.89-19.25l-1.42-5ZM41,277.16h1.35l.32.1h1.49l.41.11h1.69l.42.11h1.21l.39.11h1.79l.11.1h.36c.29.86,3.7,11.19,4,12.05-.76.65-7.32,6.13-7.32,6.13l1.94,5.92,27.18-22.7-1.64-4.94L39.32,272Zm14.61.86h1.21l.32.1h1.49l.42.11h1.33l.91.11h.94l.92.11h1.36l.43.1h1.2l.37.11h1.24c-2.09,1.83-8,6.78-9.32,7.85C57.92,284.9,56.16,279.63,55.61,278Zm-.54,36,6.26,10.43a14.42,14.42,0,0,0,9,7c4.24,1.07,9.08.21,13.69-2.58,4.25-2.58,7-5.81,8-9.57s.12-7.53-2.31-11.62l-6.26-10.54Zm27.18-9.58,0,.11h0l.06.11.08.11.07.21.09.11.08.11.1.21.1.11.09.21.11.22.21.32.21.32.22.44.09.1.11.22.1.11.09.21.09.11.09.21.08.11.07.11.07.11,0,.1h0l0,.11h0l0,.11h0v.11h0a12.31,12.31,0,0,1,2,6.23c0,3-1.56,6.13-6.22,8.93-9.32,5.59-13.78.54-15.25-2,0,0-2.31-3.87-3.19-5.38ZM79.1,350.61l3.7,3.77s11.51-11.4,15.83-15.6L89.31,358,93,361.8s14.24-6.46,19.62-8.93l-15.88,15.7,3.86,3.88,23.45-23.13-4.63-4.73s-19.28,8.82-22.52,10.22c1.56-3.12,10.76-22.16,10.76-22.16l-5.12-5.16Zm35.21,32.16,4.74,3.34,18.87-27-4.71-3.33Zm18.9,12.37L138,397.4s8.07-17.1,9.83-20.76c.55,4.19,3.53,27.1,3.53,27.1l4.87,2.26,14.13-29.79L165.56,374s-8,17-9.83,20.76c-.55-4.3-3.48-27-3.48-27l-4.92-2.36Zm39,16.14,5.55,1.61,8.9-31.73-5.59-1.61Zm22.94-19.58,0,.43,0,.43V393l0,.54,0,.32.08.43.1.43.11.43.13.32.16.43.18.32.18.33.2.32.22.43.23.32.25.32.26.22.27.32.28.32.29.33.29.32.31.22.63.53.64.54.66.54.66.54.66.43c3.15,2.36,5.88,4.41,5.46,7.53-.37,2.9-3.15,4-5.55,3.65-3.06-.43-5.58-1.93-8.06-3.55l-1.1-.64-.75,6,.5.22a27.94,27.94,0,0,0,8.16,2.47c9,1.18,12.18-4.73,12.64-8.07.71-5.7-3.61-8.82-7.44-11.72-2.89-2.15-5.42-4.09-5.08-6.45.12-1.19,1.55-3.55,5-3a17.08,17.08,0,0,1,6.18,2.47l1.68.86.71-5.49-.51-.21a21.45,21.45,0,0,0-7.34-2.37C199.13,383,195.64,388.15,195.18,391.7Zm26.42-5.06.26,4.62s9.7-.43,11.09-.53c.08,1.5,1.47,28.17,1.47,28.17l5.76-.32s-1.39-26.67-1.48-28.18c1.39-.1,11.09-.53,11.09-.53l-.25-4.74Zm45.84-5.7-10.62,2.69L265,415.57l5.63-1.4s-3-11.5-3.32-12.9c.88-.22,2.4-.65,3-.75.58.53,12,10.64,12,10.64l6.93-1.82s-13.23-11.08-14.32-12a10.7,10.7,0,0,0,3.94-8,10.28,10.28,0,0,0-.24-2.26,8.38,8.38,0,0,0-3.75-5.27C271.85,380,268.41,380.73,267.44,380.94Zm-.63,5.06.31-.11h.3l.3-.11h1.81l.13.11H270l.12.11h.24l.11.1h.12l.1.11h.11l.11.11h.11a3.69,3.69,0,0,1,1.68,2.37,7.58,7.58,0,0,1,.29,1.93,4.58,4.58,0,0,1-.67,2.48c-.88,1.61-2.69,2.68-5.29,3.33a5.39,5.39,0,0,1-1,.11c-.3-1.08-2.18-8.5-2.53-9.68C264.58,386.53,266.81,386,266.81,386Zm27.68-14.74,2.69,35.28,4.84-2.37s-.68-8.49-.72-9.46c.84-.43,10.55-5.16,11.43-5.59l7.06,6.45,5.59-2.69-26.14-24ZM300,377.5l.2.22.23.1.23.22.26.32.28.22.28.21.3.32.32.22.32.32.32.33.68.64.69.54.68.64.68.65.34.32.33.32.31.22.31.32.29.22.29.32.27.21.26.22.24.22.21.21.21.22.18.21.15.11.13.11-8.07,4C300.79,387.93,300.21,380.3,300,377.5ZM312.6,362l2.86,3.77s7.72-5.92,8.82-6.78c.92,1.29,17.1,22.48,17.1,22.48l4.58-3.55s-16.13-21.19-17.06-22.37c1.09-.86,8.82-6.78,8.82-6.78l-2.86-3.65Zm27.68-22.68L364,362.13l4-4.2-23.74-22.8Zm27.4-29.8h-.34l-.34.11-.33.1-.33.11L366,310l-.33.11-.32.1-.33.11-.31.22-.32.1-.31.11-.3.22-.32.21-.3.11-.3.21-.29.22-.29.21-.29.22-.28.22-.28.21-.27.22-.27.32-.27.21-.25.22-.26.32-.26.22-.25.32-.23.32-.25.22-.23.32-.22.32-.23.32c-5.26,7.75-3.06,16.57,5.58,22.48,4.46,3,9.3,4.3,13.58,3.44a14.14,14.14,0,0,0,9.28-6.45,14.46,14.46,0,0,0,2.6-11c-.8-4.19-3.69-8.28-8.18-11.29S372,308.67,367.68,309.53Zm-.25,23.77-.2-.11-.22-.11-.22-.21-.23-.11-.24-.22-.23-.21-.24-.22-.25-.1-.24-.22-.26-.21-.25-.33-.25-.21-.25-.22-.25-.21-.25-.32-.24-.22-.24-.32-.23-.22-.24-.32-.21-.32-.22-.33-.2-.32-.2-.21-.19-.33-.18-.43-.16-.32-.15-.32-.14-.32-.13-.33-.11-.43-.1-.32-.08-.43a8.1,8.1,0,0,1,1.47-6.24,8.2,8.2,0,0,1,5.25-3.65c4-.65,8.2,1.61,10.34,3.12,3.1,2.15,9.83,7.74,5.13,14.62S370.54,335.45,367.43,333.3Zm12.72-59.69-1.63,4.08s17.52,6.89,21.38,8.39c-4.19.86-26.76,5.38-26.76,5.38l-2,5.05,30.68,12.05,1.89-4.95s-17.48-6.88-21.35-8.39c4.16-.86,26.77-5.37,26.77-5.37l1.93-5-30.62-12Zm10.22-51.84h9l2.82-8.6,2.73,8.6h9L406.66,227l2.73,8.61-7.22-5.27-7.27,5.27,2.77-8.61Zm-350.72.11h9l2.82-8.6,2.69,8.6h9.07l-7.31,5.27,2.85,8.61-7.3-5.27-7.27,5.27,2.73-8.61Z"/><path class="cls-5" d="M349.41,243.06l-.91,1.72-1,1.73-1,1.61-1.11,1.61-1.18,1.61L342.93,253l-1.31,1.61-1.38,1.51-1.44,1.5-1.5,1.51-1.57,1.5-1.63,1.51-1.69,1.4-1.74,1.4-1.8,1.39L327,267.58a133.47,133.47,0,0,0,4.74-40.76h18.73A129.88,129.88,0,0,1,349.41,243.06ZM327.22,299l-1.39,1.72-1.48,1.72-1.55,1.72-1.64,1.61-1.71,1.62L317.67,309l-1.85,1.51-1.93,1.5-2,1.51-2.05,1.4-2.13,1.39-2.19,1.29-2.24,1.4L301,320.17l-2.36,1.3-2.42,1.18A133.76,133.76,0,0,0,325,274.14c9.16-5.81,16.77-12.37,22.4-19.79A123.06,123.06,0,0,1,327.22,299Zm-50.62,41.3,1.47-1.18,1.45-1.08,1.43-1.18,1.42-1.19,1.39-1.07,1.38-1.18,1.34-1.19,1.33-1.29a119.7,119.7,0,0,0,16-7.2A125.24,125.24,0,0,1,276.6,340.29Zm-17.4,6.13-1.88.54-1.89.43-1.9.43-1.91.43-1.92.43-1.94.32-1.93.32-2,.32q4-4.83,7.57-9.67a169.12,169.12,0,0,0,25.11-5.27A152.39,152.39,0,0,1,259.2,346.42ZM227,350.83v-9.25h0c6.39,0,12.65-.43,18.83-1q-3.78,4.84-7.85,9.68C234.38,350.61,230.72,350.83,227,350.83Zm46.63-56.47-1.14,2.58-1.19,2.58L270,302.11l-1.29,2.58-1.33,2.58L266,309.85l-1.44,2.58L263.1,315l-1.54,2.69L260,320.28l-1.64,2.58-1.68,2.58L254.93,328l-1.77,2.59-1.83,2.58-1.87,2.58A191.43,191.43,0,0,1,227,337.06h0V299.31A217,217,0,0,0,273.61,294.36Zm-46.63-63h0a221.75,221.75,0,0,0,45.08-4.52h13.74c1.39,20.76-2,41.73-10.2,62.59A214.14,214.14,0,0,1,227,294.9Zm9.74-128.09-.51.32-.53.43-.55.32-.55.43-.57.43-.58.33-.58.43-.6.43-.6.53-.63.43-.62.43-.63.54-.65.54-.65.43-.65.54-.67.53v-7.52C230.38,102.82,233.57,103,236.72,103.25Zm38,9.36-2.81-.43-2.79-.33-2.74-.32-2.72-.21-2.7-.22-2.65-.21-2.65-.11-2.6-.11-2.58-.11h-7.59l-2.47.11-2.44.11-2.42.21-2.4.22a64.78,64.78,0,0,1,11-7.1A122.54,122.54,0,0,1,274.76,112.61ZM290.92,121l-2.23,1-2.23,1-2.22.86-2.22.75-2.19.86-2.18.75-2.18.65-2.15.75A118.86,118.86,0,0,0,243,115.08a191.33,191.33,0,0,1,45.79,4.51A23.21,23.21,0,0,0,290.92,121Zm10.84,7.53.27.11.28.22.27.21.27.22.26.21.27.22.13.1.14.11.13.11.12.11c-14.11,11.4-31.54,15.81-32.89,16a1.52,1.52,0,0,1,.21-1C285.12,139.17,294.62,133.79,301.76,128.52Zm22.81,76.58.41,2,.39,1.94.34,1.93L326,213l.28,2,.26,1.94.22,2,.19,1.94-27.1-2.37A107.5,107.5,0,0,0,324.57,205.1ZM275.8,172.94l.15-.22.15-.21.14-.32.13-.22.13-.21.11-.22.12-.21.12-.22.11-.21.1-.22.19-.43.18-.43.16-.43.15-.32.13-.43.13-.33.12-.43.11-.32.11-.32.09-.32.1-.33a52.9,52.9,0,0,1-19.91,4.63.92.92,0,0,1,.21-.43c.33-.11,1.47-.32,1.47-.32,17.39-3.55,29.74-12.05,32.31-14.95a13.44,13.44,0,0,0,2.76-5.06,112.69,112.69,0,0,1,24,37.54,117.61,117.61,0,0,1,4.07,12.58c-8.78,6.88-20.33,12.69-33.82,17.1h-.55a143.23,143.23,0,0,0-2.76-15.27A153.76,153.76,0,0,0,275.8,172.94Zm-30.2-38.39-2.43.54-2.39.53-2.37.54-2.32.54-2.28.64-2.25.54-2.2.65-2.16.64,0-22.69h.51A182.61,182.61,0,0,1,245.6,134.55Zm4.49-1-1-1.19-1-1.07-1-1.08-.94-1.07-1-1.08-.95-1-.94-1.07-1-1-.95-1-.93-1-.93-1-.93-.86-.92-.86-.92-1-.91-.86-.9-.86a120.46,120.46,0,0,1,32.14,11.5C261.31,130.89,255.59,132.29,250.09,133.58Zm43.61,15-1.27.86-1.29.76-1.3.75-1.32.65-1.32.75-1.31.54-1.31.64-1.32.54-1.3.54-1.28.53-1.27.43-1.24.44-1.23.43-1.19.32-1.16.43-1.13.32-1.09.22-1,.32-1,.21-.95.22-.89.21-.84.22-.77.11-.71.21-.63.11-.57.11-.48.1h-.41l-.32.11h-.44s.13-.64.34-.64c13.82-4,22.94-8,29.2-11.94-.09.21-.21.21-.34.32C292.94,147.88,293.32,148.31,293.7,148.63Z"/><path class="cls-5" d="M239.59,203.06h.53l.28-.11h.72l.43-.11H242l.52-.11.55-.1.6-.11.62-.11.66-.11.67-.1.7-.22.72-.22.75-.1.75-.22.76-.21.77-.33.77-.21.77-.32.77-.33.77-.32.76-.32.74-.43.73-.43.72-.43.69-.43.66-.54.65-.54c8.49-6.45,7.85-13.55,7.85-13.55a68.21,68.21,0,0,1-20.12,5.49,1.71,1.71,0,0,1,.46-1,71.76,71.76,0,0,0,23.45-8.82,23.55,23.55,0,0,0,3.15-2.58l-.09.21a147.77,147.77,0,0,1,9.54,27c1.09,4.62,1.88,9.25,2.52,13.87l-38.74-3.44c7-6,7.14-12.37,7.14-12.37C242.49,206.17,239.59,203.06,239.59,203.06ZM319,277.69,317.67,281l-1.42,3.33-1.52,3.33-1.62,3.23-1.73,3.23-1.83,3.22-1.94,3.12-2,3.12-2.14,3.12-2.26,3.12-2.35,3-2.48,2.9-2.57,3-2.69,2.79-2.79,2.8-2.91,2.79a151.69,151.69,0,0,1-30.16,7.75,211.51,211.51,0,0,0,23.27-41.62A164,164,0,0,0,319,277.69Zm-38.44,10.43,1.39-3.76,1.28-3.87,1.17-3.87,1.07-3.77,1-3.87.86-3.87.74-3.77.64-3.87.54-3.87.43-3.76L290,246l.22-3.88.12-3.76v-3.87l-.1-3.77-.2-3.87h37.26a128.45,128.45,0,0,1-6,44.63C309.79,278.44,296,284.14,280.55,288.12Zm26-155.83,2.68,2.36,2.61,2.37,2.55,2.58,2.47,2.47,2.41,2.69,2.32,2.69,2.26,2.8L326,153l2.09,2.91,2,2.9,1.93,3L333.9,165l1.75,3.12,1.67,3.12,1.57,3.23,1.48,3.33c-2.1,7.1-6.63,13.66-13.15,19.68-1.05-3.76-2.27-7.42-3.65-11.08a118.81,118.81,0,0,0-27.3-41.51,37.16,37.16,0,0,0,8.56-8.6A10.56,10.56,0,0,0,306.56,132.29Zm43.86,90.77-19-1.72a126.73,126.73,0,0,0-2.94-19.25,52.15,52.15,0,0,0,14.37-18.29A124.45,124.45,0,0,1,350.42,223.06ZM223.2,107.76l-.44-.32-.42-.32-.43-.32-.4-.33-.42-.32-.41-.32-.4-.32-.41-.22-.39-.32-.38-.22-.39-.32-.38-.22-.36-.32-.37-.21-.35-.22-.35-.21q3.34-.33,6.68-.33ZM216.56,350.4l-1-1.18-1-1.19-1-1.29-1-1.18-1-1.18-1-1.19-1.9-2.47c4.54.43,9.12.65,13.77.75l.8,9.36C221,350.72,218.78,350.61,216.56,350.4Zm-21.8-3.66-2.27-1.4-2.22-1.29-2.19-1.4-2.14-1.5-2.11-1.4-2.07-1.51-2-1.5-2-1.51a177.2,177.2,0,0,0,25,4.84c2.4,3.23,4.91,6.46,7.56,9.68A123.64,123.64,0,0,1,194.76,346.74Zm-44-21.83,1.9,1,1.92,1,2,.86,2,.86,2,.86,2.06.86,2.08.75,2.11.86c3.53,3.12,7.23,6.13,11.14,9A124,124,0,0,1,150.77,324.91ZM127.3,301v.11a123.65,123.65,0,0,1-22-48.19c5.76,8,13.78,15.17,23.57,21.41a134.4,134.4,0,0,0,29.75,49.47C145.44,317.91,134.6,310.17,127.3,301Zm-24-60.12-.18-1.72-.16-1.72-.14-1.83-.13-1.72-.1-1.83-.06-1.72,0-1.83v-1.72H122a134.71,134.71,0,0,0,4.79,41c-10.88-7.74-19-16.89-23.4-26.89Zm7.15-57.75.6,1.29.64,1.29.69,1.18.74,1.29.78,1.19.83,1.18.87,1.18.91,1.19,1,1.18,1,1.18,1,1.18,1.08,1.08,1.13,1.18,1.16,1.08,1.2,1.07,1.24,1.08a132.32,132.32,0,0,0-3,19.36l-19.79,1.72A123.6,123.6,0,0,1,110.49,183.16Zm45.92-58.51-.1.22-.08.32-.09.32-.08.22-.06.32-.06.32-.07.32-.05.22-.06.32,0,.32,0,.33,0,.21,0,.33v.86c0,4.41,1.94,8.38,5.47,12.15a118.06,118.06,0,0,0-30.8,44.74c-1.38,3.55-2.56,7.21-3.61,10.86-6.81-6-11.55-12.69-13.73-19.89A124.62,124.62,0,0,1,156.41,124.65Zm8.56-5.06,3.1-.64,3.05-.54,3-.64,3-.43,3-.43,2.93-.43,2.9-.33,2.86-.32,2.84-.32,2.81-.11,2.77-.22,2.74-.1,2.71-.11H208l2.61.11a116.69,116.69,0,0,0-46.17,23.44c-2.82-2.9-4.41-6-4.41-9.25S161.74,122.71,165,119.59Zm55.51,21.73-.92.32-.88.33-.86.32-.85.32-.83.32-.79.43-.79.33-.76.32-.74.43-.72.32-.71.33-.68.43-.67.32-.66.43-.62.32-.61.43-.59.32-.57.43-.56.43-.54.33-.53.43-.5.43-1,.86-.89.75-.84.86-.77.86-.71,1c-2.05-.43-4.11-.75-6.08-1.18a188.4,188.4,0,0,1,27.35-32Zm-6.77,98.73,4.7,54.63a217.16,217.16,0,0,1-39.49-5.05q-12.46-31.45-10.41-62.81H182a210.55,210.55,0,0,0,40.54,4.41Zm-32.77,54.53,2.25.43,2.26.43,2.29.43,2.3.43,2.31.32,2.35.33,4.71.64,4.77.54,4.83.43,4.87.32,4.91.22L222.07,337c-5.76-.1-11.42-.43-16.93-1.07A211.72,211.72,0,0,1,180.94,294.58Zm-5.29-1.19,1.09,2.59,1.14,2.68,1.2,2.59,1.24,2.58,1.29,2.58,1.33,2.69,1.39,2.58,1.44,2.58,1.48,2.58,1.53,2.69,1.58,2.58,1.64,2.58,1.67,2.58,1.72,2.58,1.79,2.69,1.83,2.58A164.74,164.74,0,0,1,169.17,328a131.64,131.64,0,0,1-34.27-50.12A160.33,160.33,0,0,0,175.65,293.39Z"/><path class="cls-5" d="M164.05,226.82l-.19,3.87-.09,3.77v3.87l.12,3.87.24,3.87.32,3.77.44,3.87.54,3.87.66,3.87.75,3.77.85,3.87,1,3.87,1.07,3.87,1.17,3.87,1.28,3.77,1.39,3.87c-15.54-4-29.49-9.68-41-16.78a128.84,128.84,0,0,1-6.14-44.74Zm-9.91-8.28-27.31,2.37A124.38,124.38,0,0,1,129.22,205,109.62,109.62,0,0,0,154.14,218.54Zm33.65-63.24-1.58,2.58-1.55,2.59-1.52,2.68-1.47,2.69-1.44,2.8-1.4,2.8-1.35,2.9-1.3,2.9-1.26,2.91-1.21,3-1.15,3.12-1.08,3-1,3.22-1,3.12-.9,3.23-.84,3.33a136.25,136.25,0,0,0-2.8,15.38h-.05c-13.7-4.51-25.5-10.43-34.49-17.42a128.08,128.08,0,0,1,4-12.37,113.12,113.12,0,0,1,30-43.34C170,148.85,178,152.61,187.79,155.3Zm2.52-4-1.75-.43-1.7-.54-1.65-.43-1.62-.53-1.58-.65-1.52-.54-1.5-.54-1.44-.64-1.39-.65-1.34-.64-1.3-.65-1.25-.75-1.18-.64-1.14-.76-1.09-.64-1-.76c13.49-11.07,30.37-19.57,50.91-23.76A190.9,190.9,0,0,0,190.31,151.32Zm8.53,62.7-.58.11-.56.11-.56.11h-.54l-.53.1-.51.11-.5.11h-.48l-.48.11-.45.1h-.44l-.42.11h-.41l-.38.11h-.37l-.35.11h-.66l-.3.1h-.78l-.21.11h-.76l-.09.11h-.11l-18.91,1.61A135,135,0,0,1,172,203.27a156.54,156.54,0,0,1,20.17-46.79c2,.43,4.12.86,6.22,1.29C188.54,179,219.09,207.36,198.84,214Zm11.09-110,.24.11.25.11.26.1.27.11.28.22.28.1.29.22.3.11.3.21.31.11.64.43.67.43.69.43.73.43.75.54.77.53.79.54.81.54.84.65.86.64.88.65a174.37,174.37,0,0,0-43.1,1.5A118.16,118.16,0,0,1,209.93,104Z"/><path class="cls-2" d="M228.15,72.82l5.64,64.74-6.6,1.94-.08-67.22ZM213.66,240.27,73.05,228l-.54-1h309.2l-.59,1L240.29,240.27,227.86,381.16l-.88.54V227Zm39.28-92h0v-.11h0v-.1h0V148h-.08s-35-1-44.1,25.38a3.51,3.51,0,0,0-.09,1.51c.13.75.2,2.36.2,2.36s3.83-21.08,37.86-25.16A9.51,9.51,0,0,0,252.94,148.31Z"/><path class="cls-2" d="M244.5,161.86h0v-.1h-.08s-26.63.21-32.64,20.54a2.84,2.84,0,0,0-.09,1.18c.09.54.17,1.83.17,1.83s2.94-16.13,27.93-20.11A8.31,8.31,0,0,0,244.5,161.86ZM237.19,175h0v-.11h0v-.1h0S218,176.6,214.75,191.44a2.16,2.16,0,0,0,0,.86l.13,1.29S216.69,182,233.37,178C233.37,178,236.39,177.46,237.19,175Z"/></g></g></svg>
